<svg height="200px" width="200px" version="1.1" id="Layer_1" xmlns="http://www.w3.org/2000/svg"
    xmlns:xlink="http://www.w3.org/1999/xlink" viewBox="0 0 508 508" xml:space="preserve"
    fill="#000000"><g id="SVGRepo_bgCarrier" stroke-width="0"></g><g id="SVGRepo_tracerCarrier" stroke-linecap="round" stroke-linejoin="round"></g><g id="SVGRepo_iconCarrier"> <circle style="fill:#F56416;" cx="254" cy="254" r="254"></circle> <path style="fill:#FFFFFF;" d="M122.8,102.4v302.8c0,8.8,7.2,16.4,16.4,16.4H316v-52.4c0-9.2,7.2-16.4,16.4-16.4h52.4V102.4 c0-8.8-7.2-16.4-16.4-16.4H139.2C130,86.4,122.8,93.6,122.8,102.4z"></path> <path style="fill:#E6E9EE;" d="M316,421.6l68.8-68.8h-52c-9.2,0-16.4,7.2-16.4,16.4v52.4H316z"></path> <path style="fill:#E28413;" d="M320.4,244.4c-16.8,0.4-34,2-51.2,5.2c11.6,1.6,23.2,3.6,34.8,6c-28.4,18-58.4,34.4-90.4,46.8 c-0.4-34.4,13.6-71.6,38.4-102.8c0.8,12.4,2,24.4,3.6,36.4c2.8-18,7.2-36,12.4-54l0,0c10-9.6,20.8-18.4,32.4-26.4 c-4.4,11.6-8.4,22.8-12,34.4c10-16,21.6-31.6,34-46.8c10.8-5.2,22-9.6,33.2-12.8c-6.4,11.6-12,23.6-17.2,35.6 c11.2-13.6,23.2-27.2,36.4-40c25.2-4.4,50-3.2,72,3.6c-14.4,18-30,34.4-46.4,50c-16.4,1.2-32.8,3.6-49.2,7.2 c12.4,1.2,24.8,2.8,36.4,4.8c-7.6,6.8-15.2,13.2-22.8,19.6l0,0c-16.4,3.2-33.2,7.2-49.6,12.4c11.2-0.4,22.4,0,33.2,0.8 c-2.8,2-5.6,4.4-8.4,6.4C333.6,235.2,327.2,239.6,320.4,244.4z"></path> <path style="fill:#E6E9EE;" d="M429.6,134.4c-11.2,3.6-26.8,8.8-44.8,17.2c-18,8-38.4,19.2-58.8,32.8c-10,6.8-20.4,14.4-30.4,22.4 s-19.6,16.8-29.2,26c-9.2,9.2-18.4,18.8-26.4,28.4c-8.4,9.6-16,20-23.2,30c-12.4,17.6-22.8,35.2-30.8,51.6c-1.2,2.8-0.8,5.6,1.2,8 l0,0c9.2-16.8,21.2-36,35.2-55.2c7.2-9.6,15.2-19.6,23.2-29.2c8.4-9.6,17.2-18.8,26.4-28s18.8-17.6,28.4-25.6S320,197.2,330,190 c19.6-14,39.2-25.6,56.8-34.4c17.6-8.8,32.4-15.6,43.2-20c10.8-4.4,17.2-6.4,17.2-6.4C447.2,129.2,440.4,130.8,429.6,134.4z"></path> </g></svg>